<?xml version="1.0" standalone="no"?><!DOCTYPE svg PUBLIC "-//W3C//DTD SVG 1.1//EN" "http://www.w3.org/Graphics/SVG/1.1/DTD/svg11.dtd"><svg t="1593611412851" class="icon" viewBox="0 0 1024 1024" version="1.1" xmlns="http://www.w3.org/2000/svg" p-id="588" xmlns:xlink="http://www.w3.org/1999/xlink" width="200" height="200"><defs><style type="text/css"></style></defs><path d="M579.918 334.367c5.225 0 10.45 2.09 14.629 6.27 8.36 8.35899999 8.36 21.42 0 29.78L437.812 527.15c-8.35899999 8.36-21.42 8.36-29.78 0-8.35899999-8.36-8.359-21.42-1e-8-29.78L564.768 340.63700001c4.702-4.18 9.927-6.27 15.151-6.27000001z" p-id="589"></path><path d="M423.184 491.102c5.22399999 0 10.449 2.09 14.628 6.27L594.547 654.105c8.36 8.36 8.36 21.42 0 29.78-8.36 8.35899999-21.42 8.359-29.78 0L408.03300001 527.15c-8.36-8.36-8.36-21.42-1e-8-29.78 4.702-4.18 9.926-6.269 15.15000001-6.269z" p-id="590"></path><path d="M512 94.04000001C742.4 94.04 929.96 281.6 929.95999999 512S742.4 929.96 512 929.95999999 94.04 742.4 94.04000001 512 281.6 94.04 512 94.04000001z m0 794.12299999c207.412 0 376.163-168.75 376.163-376.163S719.413 135.837 512 135.837 135.837 304.587 135.837 512 304.587 888.163 512 888.163z" p-id="591"></path></svg>